<?xml version="1.0" standalone="no"?><!DOCTYPE svg PUBLIC "-//W3C//DTD SVG 1.1//EN" "http://www.w3.org/Graphics/SVG/1.1/DTD/svg11.dtd"><svg t="1557994644461" class="icon" style="" viewBox="0 0 1024 1024" version="1.1" xmlns="http://www.w3.org/2000/svg" p-id="2369" xmlns:xlink="http://www.w3.org/1999/xlink" width="200" height="200"><defs><style type="text/css"></style></defs><path d="M936.96 906.24s-20.48-250.88-133.12-291.84c-81.92-30.72-158.72-56.32-240.64-61.44v-5.12H460.8v5.12c-81.92 10.24-158.72 30.72-235.52 61.44-112.64 40.96-133.12 291.84-133.12 291.84V1024h844.8v-117.76c-5.12 5.12 0 5.12 0 0z" fill="#DDEEFF" p-id="2370"></path><path d="M680.96 542.72l-20.48-25.6s-66.56 107.52-143.36 102.4l133.12 76.8c0-5.12 20.48-56.32 30.72-153.6zM343.04 542.72l20.48-25.6s66.56 107.52 143.36 102.4l-133.12 76.8c0-5.12-20.48-56.32-30.72-153.6z" fill="#9CAAAF" p-id="2371"></path><path d="M291.84 245.76s-10.24-46.08 30.72-56.32c30.72-5.12 194.56-51.2 307.2-46.08 51.2 0 92.16 46.08 92.16 46.08s25.6 61.44 20.48 102.4c0 0 30.72 30.72 15.36 87.04s-61.44 66.56-61.44 66.56-35.84 179.2-174.08 179.2c-97.28 0-179.2-97.28-194.56-168.96 0 0-66.56-15.36-66.56-81.92 0-71.68 10.24-87.04 30.72-92.16v-35.84z" fill="#E2C7B0" p-id="2372"></path><path d="M296.96 307.2s-56.32-148.48 40.96-225.28S512-10.24 558.08 10.24s66.56 30.72 87.04 35.84c20.48 5.12 133.12 71.68 97.28 245.76 0 0-10.24 30.72-15.36 0-10.24-35.84-15.36-122.88-66.56-128-51.2-10.24-71.68 20.48-81.92 30.72s-112.64 25.6-168.96 0-76.8 35.84-87.04 66.56-5.12 40.96-25.6 46.08z" fill="#333333" p-id="2373"></path><path d="M512 762.88m-25.6 0a25.6 25.6 0 1 0 51.2 0 25.6 25.6 0 1 0-51.2 0Z" fill="#0A4164" p-id="2374"></path><path d="M512 880.64m-25.6 0a25.6 25.6 0 1 0 51.2 0 25.6 25.6 0 1 0-51.2 0Z" fill="#0A4164" p-id="2375"></path><path d="M624.64 399.36h-56.32c-20.48 0-30.72-15.36-30.72-30.72v-40.96c0-15.36 10.24-25.6 25.6-25.6h76.8c15.36 0 25.6 10.24 25.6 25.6v35.84c-5.12 20.48-20.48 35.84-40.96 35.84z m-66.56-81.92c-5.12 0-10.24 5.12-10.24 10.24v35.84c0 10.24 10.24 20.48 20.48 20.48h56.32c10.24 0 20.48-10.24 20.48-20.48v-35.84c0-5.12-5.12-10.24-10.24-10.24h-76.8zM460.8 399.36H404.48c-20.48 0-30.72-15.36-30.72-30.72v-40.96c0-10.24 10.24-20.48 20.48-20.48h76.8c15.36 0 25.6 10.24 25.6 25.6v35.84c0 15.36-15.36 30.72-35.84 30.72zM394.24 317.44c-5.12 0-10.24 5.12-10.24 10.24v35.84c0 10.24 10.24 20.48 20.48 20.48H460.8c10.24 0 20.48-10.24 20.48-20.48v-35.84c0-5.12-5.12-10.24-10.24-10.24H394.24z" fill="" p-id="2376"></path><path d="M491.52 322.56h56.32v10.24H491.52z" fill="" p-id="2377"></path></svg>